<svg id="Layer_1" data-name="Layer 1" xmlns="http://www.w3.org/2000/svg" xmlns:xlink="http://www.w3.org/1999/xlink" viewBox="0 0 588.55 315.98"><defs><style>.cls-1{fill:url(#New_Gradient_Swatch_copy_3);}.cls-2{fill:url(#New_Gradient_Swatch_copy_3-2);}.cls-3{fill:url(#New_Gradient_Swatch_5);}.cls-4{fill:url(#New_Gradient_Swatch_5-2);}.cls-5{fill:url(#New_Gradient_Swatch_5-3);}.cls-6{fill:url(#New_Gradient_Swatch_5-4);}.cls-7{font-size:80.54px;}.cls-7,.cls-8,.cls-9{fill:#2b539f;}.cls-7,.cls-8{font-family:BaskOldFace, Baskerville Old Face;}.cls-8{font-size:36.77px;}.cls-10{fill:#fff;}.cls-11{fill:#109447;}</style><linearGradient id="New_Gradient_Swatch_copy_3" x1="369.32" y1="369.74" x2="591.41" y2="591.83" gradientUnits="userSpaceOnUse"><stop offset="0" stop-color="#2ba6de"/><stop offset="1" stop-color="#293f8f"/></linearGradient><linearGradient id="New_Gradient_Swatch_copy_3-2" x1="278.17" y1="460.88" x2="500.26" y2="682.97" xlink:href="#New_Gradient_Swatch_copy_3"/><linearGradient id="New_Gradient_Swatch_5" x1="457.17" y1="401.14" x2="457.17" y2="689.61" gradientUnits="userSpaceOnUse"><stop offset="0" stop-color="#8bc343"/><stop offset="0.55" stop-color="#069247"/><stop offset="1" stop-color="#0d6b38"/></linearGradient><linearGradient id="New_Gradient_Swatch_5-2" x1="461.69" y1="401.14" x2="461.69" y2="689.61" xlink:href="#New_Gradient_Swatch_5"/><linearGradient id="New_Gradient_Swatch_5-3" x1="393.38" y1="401.14" x2="393.38" y2="689.61" xlink:href="#New_Gradient_Swatch_5"/><linearGradient id="New_Gradient_Swatch_5-4" x1="343.21" y1="401.13" x2="343.21" y2="689.61" xlink:href="#New_Gradient_Swatch_5"/></defs><path class="cls-1" d="M378.86,427l39.64-6,30.57-4.71,11.32-1.79,8.36-1.34,7-1.15-7.06.13c-2.3.05-5.14.12-8.47.23-2.74.07-5.82.18-9.21.3l4.37-9c-.88-.25-1.76-.49-2.65-.72l-4.78,9.8-7.51.3,5.67-11.62c-.92-.18-1.83-.35-2.75-.51l-6,12.27-7.48.35L436.49,400c-.95-.11-1.91-.21-2.86-.29l-6.85,14-7.72.41,7.24-14.83-3,0-7.34,15-8.79.52,7.42-15.19c-1.05.08-2.1.18-3.15.29L404.08,415l-6.95.45,7.1-14.56c-1.1.19-2.2.39-3.3.61L394,415.67l-7,.48,6.27-12.85c-1.17.32-2.34.65-3.5,1l-5.89,12.07-6.22.46-.77.06,4.77-9.78c-1.26.5-2.51,1-3.75,1.55l-4.14,8.47-4.81.4c-1.07,2.34-2,4.77-2.92,7.27-.51,1.45-1,2.93-1.44,4.41l3.14-.51Z" transform="translate(-244.24 -373.02)"/><path class="cls-2" d="M509,632.43c-.55,1.06-1.41,2.6-2.53,4.59-.58,1-1.2,2.11-1.94,3.31l-.37.62v-10.5c-.89,1-1.79,2-2.7,2.93v11.85c-.75,1.14-1.57,2.33-2.44,3.57V635.91q-1.33,1.35-2.7,2.67v13.87l-.77,1c-.54.67-1.1,1.36-1.67,2v-14.6c-.89.82-1.79,1.64-2.7,2.44v15.26q-1.26,1.38-2.64,2.76V645.59c-.89.75-1.79,1.49-2.69,2.22v16.11c-.37.31-.73.63-1.1,1s-1,.85-1.45,1.23L482,667.17V650.81c-.89.67-1.79,1.34-2.7,2v16.41l-.17.13-.05,0-.11.07-.42.28-1.69,1.13c-.46.3-.94.57-1.41.85V655.5c-.9.6-1.8,1.2-2.7,1.78v16l-1.37.72-2,.91-.53.23v-15.4c-.83.5-1.66,1-2.5,1.49l-.2.12v14.91l-.32.13-.52.17-2.12.73-.89.25v-14c-.92.49-1.82,1-2.7,1.39v13.39l-.8.17c-.74.16-1.49.35-2.25.45l-.81.13V666.62c-.91.4-1.81.76-2.69,1.1v11.6c-1.28.12-2.57.19-3.86.2V669q-1.35.4-2.7.75v9.69h-.45c-.4,0-.79-.08-1.18-.12l-1.19-.11-.59-.07-.44-.08v-8.51q-1.37.23-2.7.36v7.64q-1-.26-2-.48l-1.91-.63v-6.32h-.27c-.82,0-1.63,0-2.43-.08v5.36l-.14-.06c-.75-.33-1.48-.72-2.23-1.07l-1.48-.82v-3.86c-.92-.16-1.82-.35-2.7-.58v2.75a50.9,50.9,0,0,1-6.27-5.08,74.2,74.2,0,0,1-7.45-8.24c-.6-.74-1.16-1.53-1.74-2.29s-1.13-1.58-1.7-2.38l-.8-1.19c-.27-.41-.53-.77-.82-1.23l-.85-1.32-.22-.33-.11-.17c0-.06,0,0-.06-.1l-.4-.65c-2.14-3.44-4.25-7-6.41-10.77s-4.39-7.58-6.83-11.47c-1.22-1.94-2.49-3.89-3.84-5.84l-1-1.46-1.07-1.45c-.68-1-1.49-2-2.27-3l-.29-.37-.27-.34-.54-.65-.54-.65-.27-.33-.14-.16-.23-.27-2.5-2.74c-.42-.46-.83-.93-1.27-1.37l-1.32-1.3c-.9-.86-1.77-1.75-2.69-2.58-1.86-1.63-3.7-3.33-5.66-4.83l-1.46-1.16c-.49-.39-1-.78-1.47-1.14-1-.72-2-1.45-3-2.18-4.06-2.83-8.22-5.52-12.48-8-8.49-5-17.25-9.22-25.85-13.51l-6.39-3.19-1.59-.79-1.61-.83-3.18-1.64c-4.12-2.18-8.18-4.46-12.1-6.9a117.23,117.23,0,0,1-21.42-16.69,61,61,0,0,1-14.11-21.14c-.2-.48-.35-1-.52-1.46s-.35-1-.46-1.42l-.4-1.33-.43-1.75-.11-.45-.05-.21v0l-.15-.74-.28-1.5-.11-.73,18.31,18.3a38.12,38.12,0,0,1-.05-3.86l-18.68-18.69,0-1.08c0-.25,0-.51,0-.76v-.77l0-1.53.1-1.53c0-.25,0-.51.05-.76l.08-.77c.06-.51.1-1,.16-1.53l0-.26,19.41,19.41c.24-1,.5-2,.78-3L262.63,497c.07-.35.14-.7.22-1,.26-1,.46-2,.78-3s.65-2.19,1-3.28l20,20c.37-.92.75-1.81,1.13-2.69l-20.1-20.1a67.36,67.36,0,0,1,3-6.38l20.1,20.1c.42-.85.84-1.7,1.28-2.54l-20-20c.45-.77.92-1.53,1.4-2.29q1.11-1.73,2.31-3.39L293.38,492c.46-.82.92-1.63,1.39-2.43l-19.34-19.34c1.26-1.64,2.59-3.22,4-4.75L298,484.12c.49-.78,1-1.56,1.49-2.33L281.24,463.5c1.36-1.4,2.77-2.75,4.21-4.05l17.39,17.38,1.57-2.24-16.92-16.92.85-.71,1.23-1,.61-.49.63-.46,1.25-.94.22-.15L308,469.68l1.66-2.15-15.16-15.16h0l1.42-.93.36-.23.18-.12h0l.06,0,.68-.4,1.35-.8,1.05-.62L313.37,463c.58-.7,1.16-1.39,1.75-2.07l-13-13,2-1.07,1.39-.73,1.41-.68.23-.11,11.57,11.58,1.83-2L309.7,444h0c1.84-.84,3.69-1.62,5.56-2.37l9.13,9.13,1.91-1.91L318,440.59q2.28-.84,4.58-1.62l6.85,6.85,2-1.84-5.95-6c1.58-.5,3.17-1,4.76-1.45l4.47,4.47c.68-.59,1.36-1.18,2-1.76l-3.55-3.55q3.79-1,7.56-1.9l0-.16a131.44,131.44,0,0,1,4.56-13.55c-5.07.74-10.23,1.63-15.48,2.74-17,3.63-35,9.66-51.26,21.74a97.1,97.1,0,0,0-11.28,10.05,94.51,94.51,0,0,0-9.71,12A86.24,86.24,0,0,0,250,480.5l-.76,1.87-.37.93-.35.95-.68,1.91c-.21.64-.41,1.29-.61,1.94-.43,1.29-.74,2.62-1.1,3.94-.16.67-.3,1.34-.45,2s-.29,1.34-.4,2l-.35,2.05c-.1.68-.18,1.37-.27,2.06l-.12,1c0,.35-.06.7-.09,1.05l-.15,2.08c0,.7-.05,1.4-.07,2.1l0,1.05c0,.35,0,.71,0,1.06l.05,2.11.15,2.11.08,1.05c0,.35.09.71.13,1.06l.27,2.1c.11.7.24,1.4.37,2.1l.19,1s.11.54.09.44l0,.22.11.44.42,1.8.61,2.18c.2.75.42,1.39.64,2.06s.43,1.35.7,2l.75,2c.26.65.55,1.29.82,1.94s.58,1.28.88,1.91.59,1.27.93,1.88a73.39,73.39,0,0,0,4.24,7.17c1.53,2.29,3.19,4.47,4.92,6.58s3.56,4.09,5.43,6A130.94,130.94,0,0,0,290.9,576c4.38,2.68,8.84,5.14,13.34,7.42l3.31,1.65,1.63.81,1.68.81,1.6.78-2.32,2.32c.43.83.88,1.66,1.33,2.48l3.56-3.56,2.45,1.16,1.13.54-5.25,5.25c.46.8.93,1.61,1.41,2.41l6.43-6.44,3.58,1.7-8,8c.49.78,1,1.56,1.48,2.33l9.11-9.1,3,1.46.54.26L320.36,606.8l1.57,2.25,11.54-11.54,3.16,1.58.35.19-12.84,12.83c.54.73,1.09,1.46,1.64,2.18l13.71-13.71c1.08.57,2.15,1.14,3.2,1.73l.22.12-14.82,14.82c.57.71,1.14,1.41,1.72,2.11l15.56-15.57c1.12.64,2.24,1.29,3.33,2l-16.48,16.48c.59.68,1.18,1.36,1.78,2l17.07-17.06c1,.65,2.07,1.3,3.09,2l.12.08L336.51,627l1.85,2,18.19-18.19.31.21c.46.3.89.62,1.32,1l1.29,1,.14.1L341,631.65c.63.63,1.28,1.26,1.93,1.88l18.86-18.87c.91.74,1.8,1.48,2.71,2.21l.19.17L345.61,636.1c.67.62,1.34,1.22,2,1.81l19.06-19.06a1.59,1.59,0,0,1,.13.13l1.17,1c.38.35.73.73,1.09,1.1l.3.3-18.93,18.94c.69.58,1.39,1.16,2.09,1.72l18.74-18.74s.13.14,0,0l.14.16.29.32.56.63.57.63.27.31.24.28.37.44-18.27,18.27c.73.56,1.45,1.1,2.18,1.63l17.82-17.81.81,1,.95,1.26c.18.23.36.47.53.71l-17,17c.76.52,1.52,1,2.29,1.53l16.34-16.34c.53.73,1.05,1.47,1.57,2.22l.6.88-15.25,15.26c.8.48,1.61.94,2.42,1.39L383.1,638.8l2.1,3.18-13,13c.86.43,1.71.85,2.57,1.25l12-12,1.36,2.09c.23.37.48.73.71,1.1l-10.37,10.38c.92.37,1.83.73,2.75,1.06l9.13-9.13c.7,1.06,1.4,2.12,2.11,3.17l-7.3,7.3c1,.3,2,.58,3,.85l5.87-5.88,1.39,2,.47.66.28.38,0,.06-3.77,3.77c1.08.22,2.17.41,3.25.57l2.14-2.14.49.64,1,1.34c.69.86,1.37,1.72,2.06,2.56s1.4,1.68,2.13,2.49a80.15,80.15,0,0,0,9.33,9.1,60,60,0,0,0,10.74,7.13c1,.46,1.92.92,2.89,1.36s2,.81,3,1.17l1.5.5.75.24.19.06.37.12.34.08,2.7.66c1.07.2,2.14.38,3.2.56l.4.07.38,0,.76.08,1.5.14.75.06.74,0,1.49,0c.49,0,1,0,1.47,0l1.46-.07a50.19,50.19,0,0,0,11.09-1.71,61,61,0,0,0,18.38-8.41c10.51-7.17,17.06-15.94,21.65-23.33a107.93,107.93,0,0,0,5.53-10.2c1.45-3,2.54-5.67,3.4-7.81s1.46-3.8,1.85-4.93.6-1.7.6-1.7Z" transform="translate(-244.24 -373.02)"/><path class="cls-3" d="M456.89,400.52l3.2-6.56-2.42-1.18-3.42,7C455.13,400,456,400.26,456.89,400.52Z" transform="translate(-244.24 -373.02)"/><path class="cls-4" d="M504.16,617.33v0l-.2.12-4.07,1.77-8.11,3.58q-4.8,2.13-11,4.91c-8.2,3.69-18.13,8.23-29.49,13.48-5.68,2.62-11.7,5.46-18.06,8.42-5.33,2.48-10.83,5.12-16.56,7.71.48.64,1,1.3,1.46,1.92a75.14,75.14,0,0,0,5.09,5.88l3.6-2v3.36q1.32.39,2.7.66v-5.53l3.85-2.19v8.23c.89.06,1.79.08,2.7.08v-9.85l1.12-.64,2.74-1.58v11.84q1.33-.15,2.7-.39v-13l3.85-2.22V666.2c.9-.23,1.79-.5,2.7-.8V650.29l3.86-2.23V664c.88-.36,1.78-.75,2.69-1.16V646.49l3.86-2.24v16.69c.88-.45,1.78-.94,2.7-1.45V642.68l3.85-2.26v16.84q1.36-.81,2.7-1.65V638.84l3.86-2.26v16.55c.9-.61,1.8-1.22,2.7-1.85V635l3.85-2.28v15.8c.91-.68,1.81-1.37,2.7-2.06V631.11l.48-.28,3.38-2v14.5c.9-.76,1.8-1.53,2.69-2.31V627.22l2.64-1.58v13c.91-.84,1.81-1.68,2.7-2.54V624l2.44-1.47V633.7c.91-.91,1.81-1.84,2.7-2.78v-10l1.35-.82,1.09-.66v8.83c.91-1,1.81-2,2.7-3.07v-7.42l2.51-1.54Z" transform="translate(-244.24 -373.02)"/><path class="cls-5" d="M423.16,383.2c2.57.17,5.1.46,7.57.85L425,395.8c1,0,2,0,3,.07l5.53-11.34c.75.14,1.51.29,2.25.46s1.61.36,2.4.55,1.41.37,2.11.55l-5,10.26c.95.09,1.91.19,2.85.31l4.79-9.81,1.07.34.59.19.25.08.28.1,2.22.79c.62.21,1.23.44,1.84.67l-4.23,8.67c.91.16,1.83.34,2.74.53l4-8.22a143.84,143.84,0,0,1,15.41,7.42c4.67,2.59,8.85,5.2,12.61,7.61,7.49,4.86,13.24,9,17.19,11.73l6,4.26-1.38-1.3c-.9-.85-2.25-2.12-4-3.75s-4-3.65-6.58-6q-2-1.74-4.25-3.71c-1.53-1.3-3.16-2.69-4.92-4.12-3.5-2.86-7.47-5.94-12-9.09a135.23,135.23,0,0,0-15.31-9.27c-1.44-.72-2.88-1.5-4.41-2.16l-2.3-1-.29-.13-.32-.14-.57-.24-1.15-.48c-.82-.31-1.66-.65-2.48-.95s-1.66-.61-2.51-.89-1.7-.57-2.56-.83-1.75-.51-2.63-.77A86.48,86.48,0,0,0,412.18,373a71.39,71.39,0,0,0-12.63,1.15c-1.07.17-2.14.43-3.22.66s-2.15.52-3.22.84-2.15.65-3.22,1-2.15.76-3.2,1.21a54.71,54.71,0,0,0-6.29,3c-1,.56-2,1.18-3,1.81l-2.85,1.95-.66.46-.16.11-.19.15-.37.29-1.47,1.18L370.17,388c-.48.4-.89.81-1.34,1.22l-1.33,1.24-.66.62c-.22.21-.42.44-.63.66l-2.5,2.66a80,80,0,0,0-8.53,11.9l-.93,1.6c-.3.53-.62,1.06-.89,1.61l-1.7,3.28-1.55,3.35c-.26.56-.5,1.13-.73,1.7l-.71,1.71a131,131,0,0,0-4.76,14.09c-.32,1.2-.64,2.4-1,3.61s-.58,2.43-.87,3.64l-.23,1-.18.87-.25,1.16-2.2-2.2c-.69.58-1.37,1.17-2.05,1.76l3.61,3.62c-.07.35-.13.7-.2,1.05l-.36,1.86-.32,1.82-.09.5-5.92-5.92c-.67.61-1.33,1.22-2,1.84l7.34,7.34c-.3,1.78-.59,3.55-.87,5.33l-9.63-9.63c-.64.64-1.28,1.27-1.91,1.91l11,11c-.36,2.3-.71,4.59-1.07,6.87L323,457.29c-.62.66-1.23,1.32-1.83,2l15.13,15.13c-.16.95-.31,1.9-.47,2.85-.21,1.23-.42,2.45-.64,3.66l-17.58-17.58q-.88,1-1.74,2.07l18.73,18.73q-.66,3.45-1.43,6.84l-21-21c-.56.71-1.11,1.43-1.66,2.16l21.91,21.91c-.06.28-.13.55-.2.82l-.44,1.72-.22.86-.25.85c-.24.82-.46,1.64-.7,2.46l-23.7-23.7c-.53.74-1,1.49-1.57,2.25l24.35,24.34-.18.55-.13.4,0,.07-.08.22c-.43,1.19-.86,2.37-1.3,3.56-.1.29-.21.61-.32.88l-.16.4L302,484.3q-.75,1.17-1.47,2.34l25.81,25.82-.34.85-.73,1.64c-.5,1.09-1,2.19-1.49,3.28l-.12.25-26.39-26.39c-.47.81-.93,1.63-1.38,2.44l26.52,26.53-.21.44c-.53,1.08-1.11,2.17-1.66,3.26-.42.83-.87,1.66-1.32,2.5l-26.58-26.59c-.43.84-.86,1.69-1.27,2.55l26.52,26.52c-.28.51-.56,1-.85,1.54-.82,1.49-1.67,3-2.52,4.47l-26.11-26.1c-.37.89-.74,1.8-1.09,2.72l25.8,25.81c-1.13,2-2.29,3.94-3.45,5.93L285.1,519.5c-.26,1-.49,2.08-.68,3.14l23.88,23.87c-1.15,2-2.31,3.94-3.46,5.94l-21-21a34.17,34.17,0,0,0,.54,4.36l19,19-1.68,2.94a1.09,1.09,0,0,1-.08.15l1.71,1.09c3.92,2.45,8,4.72,12.1,6.9l1.58.82.15-.26c4.9-8.76,10.28-17.55,15.29-26.77,2.49-4.62,4.93-9.33,7.13-14.2.57-1.21,1.08-2.46,1.62-3.69l.79-1.85.76-1.94.76-1.95.38-1c.12-.33.21-.61.32-.91l1.23-3.59.21-.62.15-.48.29-1,.58-1.94c.4-1.29.71-2.59,1.07-3.88l.25-1,.24-1,.45-1.93c.33-1.29.58-2.57.85-3.86,1.05-5.13,1.88-10.21,2.6-15.21s1.31-9.92,1.92-14.74l.93-7.16c.16-1.18.33-2.35.5-3.52l.25-1.75.26-1.7.27-1.69c.08-.55.2-1.17.3-1.75s.2-1.18.31-1.77l.15-.88.15-.77c.22-1.11.42-2.23.65-3.33s.49-2.19.74-3.29a126,126,0,0,1,3.7-12.65A77.59,77.59,0,0,1,373.91,403l1.89-2.26c.16-.18.31-.38.48-.56l.5-.52,1-1.05c.33-.34.67-.72,1-1l1-.9,1-.91.24-.23.13-.11.16-.13.63-.49,2.33-1.81c.67-.46,1.33-.92,2-1.35l-6,12.34c1.21-.48,2.44-.93,3.67-1.37l6.53-13.39c.34-.18.67-.35,1-.5.82-.43,1.68-.78,2.52-1.16s1.71-.69,2.59-1,1.52-.52,2.28-.76l-7,14.3c1.14-.32,2.29-.62,3.44-.9l7-14.35a63.12,63.12,0,0,1,7.38-1.32l-6.87,14.1c1.08-.2,2.17-.37,3.26-.53l6.77-13.88c2.29-.16,4.57-.22,6.82-.17l-6.44,13.19c1-.09,2.07-.16,3.11-.22l6.28-12.86Z" transform="translate(-244.24 -373.02)"/><path class="cls-6" d="M399,668c-.69-.83-1.36-1.68-2-2.53l-.06,0-1.74.62c-1.21.43-2.43.86-3.67,1.26l-.89.29,2-2c-1-.2-2.11-.42-3.16-.66l-4.31,4.32q-2.61.74-5.27,1.4c-.6.15-1.22.29-1.84.42l7.24-7.24q-1.46-.42-2.91-.9l-9.12,9.12c-1.79.32-3.58.61-5.33.85l-.89.09,11.47-11.47c-.9-.35-1.81-.71-2.71-1.1l-13,13-1.17.09c-1.43.07-2.88.13-4.33.14l14.88-14.88c-.84-.41-1.69-.84-2.53-1.28l-16.09,16.08c-1.45-.06-2.9-.15-4.36-.3l-.55-.06,17.58-17.58-2.4-1.41-18.19,18.18.51.51c-1.06-.14-2.13-.31-3.18-.51-.73-.13-1.45-.28-2.17-.43l19.79-19.8c-.76-.5-1.52-1-2.28-1.53l-20.6,20.6-.91-.25c-1.06-.29-2.12-.6-3.17-.94l21.6-21.61c-.73-.53-1.45-1.07-2.18-1.63l-22.24,22.24h0c-1.25-.47-2.49-1-3.7-1.54l23-23c-.69-.57-1.39-1.14-2.08-1.73l-23.52,23.52c-1.15-.59-2.29-1.22-3.39-1.89l24.09-24.09c-.67-.59-1.34-1.2-2-1.81L318.74,663c-1-.71-2.06-1.45-3-2.23L340.45,636l-1.93-1.89L313.63,659c-.93-.83-1.82-1.7-2.67-2.6l25-24.95c-.62-.65-1.24-1.31-1.85-2l-24.91,24.91-.09-.11-1-1.2c-.31-.39-.55-.75-.83-1.13l-.21-.27-.1-.15-.09-.13,24.67-24.68c-.6-.67-1.19-1.35-1.78-2l-24.38,24.38-.67-1.13c-.4-.76-.81-1.51-1.19-2.29l23.82-23.82c-.58-.7-1.15-1.39-1.72-2.1L302.36,643c-.53-1.29-1-2.61-1.4-4l0,0,22.3-22.31-1.64-2.16-21.49,21.48q-.51-2.18-.84-4.44l20.11-20.1c-.53-.74-1.05-1.5-1.57-2.25l-18.93,18.93c-.16-1.89-.22-3.81-.2-5.75l.34.34,16.67-16.68c-.5-.76-1-1.54-1.49-2.32l-15.41,15.41c.11-1.93.29-3.88.55-5.82l12.84-12.85c-.48-.79-.95-1.59-1.42-2.4l-10.69,10.7q.64-3.42,1.55-6.83l7.23-7.23c-.45-.82-.9-1.64-1.34-2.47l-4.31,4.3c.41-1.27.84-2.54,1.29-3.8q.94-2.57,2-5.12l-.06.06-.23-.11L303,586q-6.1-3.11-12.06-6.66c-1,2.49-2,5-2.93,7.57s-1.73,5.2-2.48,7.84-1.38,5.32-1.94,8-1,5.44-1.34,8.19-.55,5.55-.63,8.35a76.8,76.8,0,0,0,1.3,16.87,63.36,63.36,0,0,0,2.18,8.3c.24.68.45,1.36.71,2l.79,2c.27.66.58,1.31.87,2s.6,1.3.93,2c.62,1.29,1.34,2.53,2.05,3.78l1.15,1.82.28.45.15.23c.26.39.15.21.24.35l.53.75.53.76.13.18.17.23.35.46c.46.6.94,1.23,1.4,1.79l1.38,1.63c.47.54,1,1,1.44,1.57a60.3,60.3,0,0,0,6.2,5.68,67.75,67.75,0,0,0,6.77,4.7,71.16,71.16,0,0,0,14.51,6.66c2.48.84,5,1.53,7.48,2.11s5,1,7.51,1.37a87.84,87.84,0,0,0,14.87.79c2.45-.06,4.88-.26,7.28-.51l1.8-.21.23,0,.36,0,.41-.07.82-.13,3.29-.54c2.35-.48,4.75-.92,6.93-1.51l1.67-.41c.55-.13,1.1-.28,1.65-.44l3.25-.94c4.28-1.34,8.45-2.75,12.42-4.4,2-.78,3.93-1.65,5.86-2.48l2.84-1.29.57-.26q-1.92-1.95-3.74-4C400.4,669.68,399.72,668.83,399,668Z" transform="translate(-244.24 -373.02)"/><text class="cls-7" transform="translate(210.04 180.26)">elier Health</text><text class="cls-8" transform="translate(148.62 221.17)">Bridging People &amp; Healthcare</text><rect class="cls-9" x="148.9" y="119.43" width="7.72" height="60.72"/><path class="cls-10" d="M428.64,527.26" transform="translate(-244.24 -373.02)"/><path class="cls-11" d="M438.87,545.37a10.27,10.27,0,0,1-10.26-10,31.37,31.37,0,0,0,4.69-1.54A30.59,30.59,0,0,0,421.38,475H397.72a21,21,0,0,0-14.9,35.88c.51.51,1.08,1,1.57,1.44V496a13.31,13.31,0,0,1,13.33-13.24h23.66a22.84,22.84,0,0,1,7.26,44.51V492.45h-7.8v36H408.46v7.72h12.42a18.1,18.1,0,0,0,11,15.53,18,18,0,0,0,7,1.43H452v-7.8Z" transform="translate(-244.24 -373.02)"/><rect class="cls-9" x="176.6" y="119.43" width="7.8" height="43.77"/><rect class="cls-9" x="164.22" y="155.47" width="12.42" height="7.72"/><path class="cls-11" d="M420.88,536.21s-.61-7.23,7.76-9Z" transform="translate(-244.24 -373.02)"/><rect class="cls-11" x="181.22" y="155.47" width="3.15" height="8.62"/><rect class="cls-11" x="178.85" y="157.72" width="3.15" height="8.62"/><rect class="cls-11" x="176.64" y="162.87" width="0.49" height="0.33"/><rect class="cls-11" x="176.89" y="161.48" width="2.04" height="2.04"/><rect class="cls-11" x="177.66" y="160.54" width="2.04" height="2.04"/><rect class="cls-11" x="184.24" y="154.29" width="2.04" height="2.04"/><rect class="cls-11" x="182.77" y="154.82" width="1.06" height="1.31"/><rect class="cls-11" x="183.75" y="154.41" width="1.06" height="1.31"/><rect class="cls-11" x="181.36" y="156.04" width="3.09" height="6.25"/><rect class="cls-11" x="181.34" y="161.79" width="3.09" height="2.14"/></svg>